<svg xmlns="http://www.w3.org/2000/svg" viewBox="0 0 380 96" width="380" height="96">
  <defs>
    <linearGradient id="LK" x1="0" y1="0" x2="1" y2="1">
      <stop offset="0%" stop-color="#00d4b8"/>
      <stop offset="100%" stop-color="#00675b"/>
    </linearGradient>
    <linearGradient id="WK" x1="0" y1="0" x2="1" y2="0">
      <stop offset="0%" stop-color="#009485"/>
      <stop offset="100%" stop-color="#ff6e40"/>
    </linearGradient>
  </defs>

  <!-- Mark left (scaled 64→80) -->
  <g transform="translate(8 8) scale(1.25)">
    <path d="
      M 12 6 L 38 6 Q 52 6 52 18 Q 52 26 46 30 L 46 32
      Q 54 35 54 44 Q 54 58 38 58 L 12 58 Z
      M 22 16 L 22 28 L 36 28 Q 42 28 42 22 Q 42 16 36 16 Z
      M 22 36 L 22 48 L 38 48 Q 44 48 44 42 Q 44 36 38 36 Z
    " fill="url(#LK)" fill-rule="evenodd"/>
    <circle cx="55" cy="32" r="3.5" fill="#ff6e40"/>
  </g>

  <!-- Wordmark right -->
  <g transform="translate(108 0)">
    <text x="0" y="50"
          font-family="-apple-system,BlinkMacSystemFont,'Segoe UI','Inter',sans-serif"
          font-size="30" font-weight="800" letter-spacing="-0.6" fill="#1a1a1a">
      fastapi<tspan fill="url(#WK)">-basekit</tspan>
    </text>
    <text x="2" y="74"
          font-family="-apple-system,BlinkMacSystemFont,'Segoe UI','Inter',sans-serif"
          font-size="11" font-weight="500" letter-spacing="2.4" fill="#6b7280">
      REPOS · SERVICES · CONTROLLERS
    </text>
  </g>
</svg>
