<svg xmlns="http://www.w3.org/2000/svg" viewBox="0 0 64 64" width="64" height="64">
  <defs>
    <linearGradient id="bk" x1="0" y1="0" x2="1" y2="1">
      <stop offset="0%" stop-color="#00d4b8"/>
      <stop offset="100%" stop-color="#00675b"/>
    </linearGradient>
  </defs>

  <!-- Custom geometric B: stem + two stacked rounded chambers.
       Cut at midpoint suggests modularity without being literal. -->
  <path d="
    M 12 6
    L 38 6
    Q 52 6 52 18
    Q 52 26 46 30
    L 46 32
    Q 54 35 54 44
    Q 54 58 38 58
    L 12 58
    Z
    M 22 16
    L 22 28
    L 36 28
    Q 42 28 42 22
    Q 42 16 36 16
    Z
    M 22 36
    L 22 48
    L 38 48
    Q 44 48 44 42
    Q 44 36 38 36
    Z
  " fill="url(#bk)" fill-rule="evenodd"/>

  <!-- Orange accent dot: signature, breaks monochrome -->
  <circle cx="55" cy="32" r="3.5" fill="#ff6e40"/>
</svg>
